# AST/ASF file generated using VICON BodyLanguage
# -----------------------------------------------
:version 1.10
:name VICON
:units
  mass 1.0
  length 0.45
  angle deg
:documentation
   .ast/.asf automatically generated from VICON data using
   VICON BodyBuilder and BodyLanguage model FoxedUp or BRILLIANT.MOD
:root
   order TX TY TZ RX RY RZ
   axis XYZ
   position 0 0 0  
   orientation 0 0 0 
:bonedata
  begin
     id 1 
     name lhipjoint
     direction 0.722297 -0.617336 0.311742 
     length 2.6635 
     axis 0 0 0  XYZ
  end
  begin
     id 2 
     name lfemur
     direction 0.34202 -0.939693 0  
     length 7.39349  
     axis 0 0 20  XYZ
    dof rx ry rz
    limits (-160.0 20.0)
           (-70.0 70.0)
           (-60.0 70.0)
  end
  begin
     id 3 
     name ltibia
     direction 0.34202 -0.939693 0   
     length 7.36294   
     axis 0 0 20   XYZ
    dof rx
    limits (-10.0 170.0)
  end
  begin
     id 4 
     name lfoot
     direction 0.104879 -0.288152 0.951824   
     length 2.16981   
     axis -90 7.62852e-016 20   XYZ
    dof rx rz
    limits (-45.0 90.0)
           (-70.0 20.0)
  end
  begin
     id 5 
     name ltoes
     direction 1.53586e-011 -4.21895e-011 1   
     length 1.08218   
     axis -90 7.62852e-016 20   XYZ
    dof rx
    limits (-90.0 20.0)
  end
  begin
     id 6 
     name rhipjoint
     direction -0.75102 -0.589393 0.297631   
     length 2.78977  
     axis 0 0 0  XYZ 
  end
  begin
     id 7 
     name rfemur
     direction -0.34202 -0.939693 0   
     length 7.46076   
     axis 0 0 -20   XYZ
    dof rx ry rz
    limits (-160.0 20.0)
           (-70.0 70.0)
           (-70.0 60.0)
  end
  begin
     id 8 
     name rtibia
     direction -0.34202 -0.939693 0   
     length 7.31726   
     axis 0 0 -20   XYZ
    dof rx
    limits (-10.0 170.0)
 end
 begin
     id 9 
     name rfoot
     direction -0.107991 -0.296704 0.948844   
     length 2.09388  
     axis -90 -7.62852e-016 -20   XYZ
    dof rx rz
    limits (-45.0 90.0)
           (-20.0 70.0)
  end
  begin
     id 10 
     name rtoes
     direction -1.53559e-011 -4.21911e-011 1   
     length 1.04433   
     axis -90 -7.62852e-016 -20   XYZ
    dof rx
    limits (-90.0 20.0)
  end
  begin
     id 11 
     name lowerback
     direction 0.0165164 0.98272 0.184358   
     length 1.71896   
     axis 0 0 0   XYZ
    dof rx ry rz
    limits (-20.0 45.0)
           (-30.0 30.0)
           (-30.0 30.0)
  end
  begin
     id 12 
     name upperback
     direction -0.00887249 0.992297 0.123566   
     length 1.71504   
     axis 0 0 0   XYZ
    dof rx ry rz
    limits (-20.0 45.0)
           (-30.0 30.0)
           (-30.0 30.0)
  end
  begin
     id 13 
     name thorax
     direction -0.0157026 0.998908 0.0440032   
     length 1.77022   
     axis 0 0 0   XYZ
    dof rx ry rz
    limits (-20.0 45.0)
           (-30.0 30.0)
           (-30.0 30.0)
  end
  begin
     id 14 
     name lowerneck
     direction -0.0238856 0.998137 0.0561411   
     length 1.89341   
     axis 0 0 0   XYZ
    dof rx ry rz
    limits (-20.0 45.0)
           (-30.0 30.0)
           (-30.0 30.0)
  end
  begin
     id 15 
     name upperneck
     direction 0.0276574 0.952253 -0.304056   
     length 1.86999   
     axis 0 0 0   XYZ
    dof rx ry rz
    limits (-20.0 45.0)
           (-30.0 30.0)
           (-30.0 30.0)
  end
  begin
     id 16
     name head
     direction 0.00800083 0.994258 -0.106712  
     length 1.91492  
     axis 0 0 0   XYZ
    dof rx ry rz
    limits (-20.0 45.0)
           (-30.0 30.0)
           (-30.0 30.0)
  end
  begin
     id 17 
     name lclavicle
     direction 0.97203 0.225407 0.06595  
     length 3.34889  
     axis 0 0 0   XYZ
    dof ry rz
    limits (-20.0 10.0)
           (0.0 20.0)
  end
  begin
     id 18 
     name lhumerus
     direction 1 -4.48973e-011 2.20267e-027   
     length 4.85645   
     axis 180 -30 -90   XYZ
    dof rx ry rz
    limits (-60.0 90.0)
           (-90.0 90.0)
           (-90.0 90.0)
  end
  begin
     id 19
     name lradius
     direction 1 -4.4897e-011 4.60472e-027   
     length 2.79874   
     axis 180 -30 -90   XYZ
    dof rx
    limits (-10.0 170.0)
  end
  begin
     id 20
     name lwrist
     direction 1 -4.48952e-011 1.14928e-026   
     length 1.39937   
     axis -6.29373e-015 90 90   XYZ
    dof ry
    limits (-180.0 0.0)
 end
  begin
     id 21 
     name lhand
     direction 1 -4.48967e-011 2.29886e-026   
     length 0.573398   
     axis -1.46689e-014 90 90   XYZ
    dof rx rz
    limits (-90.0 90.0)
           (-45.0 45.0)
  end
  begin
     id 22 
     name lfingers
     direction 1 -4.48955e-011 4.59726e-026   
     length 0.462289   
     axis -2.93383e-014 90 90   XYZ
    dof rx
    limits (0.0 90.0)
  end
  begin
     id 23
     name lthumb
     direction 0.707107 -6.34866e-011 0.707107   
     length 0.663757   
     axis -90 45 5.69224e-014   XYZ
    dof rx rz
    limits (-45.0 45.0)
           (-45.0 45.0)
  end
  begin
     id 24 
     name rclavicle
     direction -0.981571 0.157346 0.108443   
     length 3.35257  
     axis 0 0 0   XYZ 
    dof ry rz
    limits (-10.0 20.0)
           (-20.0 0.0)
  end
  begin
     id 25 
     name rhumerus
     direction -1 -4.48967e-011 8.58308e-029  
     length 4.67018   
     axis 180 30 90   XYZ
    dof rx ry rz
    limits (-90.0 60.0)
           (-90.0 90.0)
           (-90.0 90.0)
  end
  begin
     id 26 
     name rradius
     direction -1 -4.48958e-011 4.52548e-027   
     length 2.65534   
     axis 180 30 90   XYZ
    dof rx
    limits (-10.0 170.0)
  end
  begin
     id 27 
     name rwrist
     direction -1 -4.48977e-011 1.14952e-026   
     length 1.32767   
     axis -6.29373e-015 -90 -90   XYZ
    dof ry
    limits (-180.0 0.0)
  end
  begin
     id 28
     name rhand
     direction -1 -4.48924e-011 2.29804e-026   
     length 0.594069   
     axis -1.46689e-014 -90 -90   XYZ
    dof rx rz
    limits (-90.0 90.0)
           (-45.0 45.0)
  end
  begin
     id 29
     name rfingers
     direction -1 -4.48998e-011 4.59888e-026   
     length 0.478954   
     axis -2.93383e-014 -90 -90   XYZ
    dof rx
    limits (0.0 90.0)
  end
  begin
     id 30
     name rthumb
     direction -0.707107 -6.34933e-011 0.707107   
     length 0.687685   
     axis -90 -45 -5.69224e-014   XYZ
    dof rx rz
    limits (-45.0 45.0)
           (-45.0 45.0)
  end
:hierarchy
  begin
    root lhipjoint rhipjoint lowerback
    lhipjoint lfemur
    lfemur ltibia
    ltibia lfoot
    lfoot ltoes
    rhipjoint rfemur
    rfemur rtibia
    rtibia rfoot
    rfoot rtoes
    lowerback upperback
    upperback thorax
    thorax lowerneck lclavicle rclavicle
    lowerneck upperneck
    upperneck head
    lclavicle lhumerus
    lhumerus lradius
    lradius lwrist
    lwrist lhand lthumb
    lhand lfingers
    rclavicle rhumerus
    rhumerus rradius
    rradius rwrist
    rwrist rhand rthumb
    rhand rfingers
  end

#!OML:ASF E:\pregnant2\Project 1\Capture day 1\Session 1\pregnant2.ASF
:FULLY-SPECIFIED
:DEGREES
128
root 7.70422 10.5994 15.7301 12.7345 0.0152396 4.2397
lowerback 6.34782 -1.30591 -4.4621
upperback -11.8553 -2.66669 -1.38664
thorax -16.7812 -0.803915 1.46201
lowerneck -12.1136 -7.25552 -10.5089
upperneck 24.9551 -10.2818 8.58389
head 11.063 -4.77588 3.46402
rclavicle 2.36057e-014 1.31198e-014
rhumerus -28.6174 37.8171 -104.78
rradius 55.3031
rwrist 27.818
rhand -8.63479 -1.86091
rfingers 7.12502
rthumb 17.298 -31.1111
lclavicle 2.36057e-014 1.31198e-014
lhumerus -28.6788 -34.921 101.733
lradius 56.034
lwrist -23.5307
lhand -4.38072 15.6491
lfingers 7.12502
lthumb 21.3883 44.4886
rfemur -97.9156 -8.04288 13.8583
rtibia 72.335
rfoot 14.4522 -4.44106
rtoes 4.74724
lfemur -94.5565 1.10951 -19.5108
ltibia 65.6194
lfoot 14.5309 -4.93277
ltoes -18.4207
129
root 7.70427 10.5979 15.7294 12.7287 0.0349606 4.24377
lowerback 6.36053 -1.30755 -4.46584
upperback -11.8532 -2.67148 -1.39574
thorax -16.7872 -0.806297 1.45511
lowerneck -12.1435 -7.23957 -10.4769
upperneck 24.9818 -10.2631 8.57532
head 11.0743 -4.76423 3.45797
rclavicle -6.83322e-015 6.36111e-015
rhumerus -28.6273 37.8222 -104.783
rradius 55.3143
rwrist 27.8034
rhand -8.62078 -1.86628
rfingers 7.12502
rthumb 17.3114 -31.1153
lclavicle -6.83322e-015 6.36111e-015
lhumerus -28.6865 -34.9519 101.741
lradius 56.0302
lwrist -23.5312
lhand -4.38521 15.6514
lfingers 7.12502
lthumb 21.384 44.4914
rfemur -97.9229 -8.06008 13.8548
rtibia 72.3578
rfoot 14.448 -4.43482
rtoes 4.6917
lfemur -94.5584 1.09027 -19.5125
ltibia 65.6192
lfoot 14.5439 -4.93676
ltoes -18.4256
130
root 7.70432 10.5965 15.7286 12.7209 0.054955 4.24863
lowerback 6.37873 -1.31041 -4.47173
upperback -11.8508 -2.67836 -1.40299
thorax -16.7961 -0.809127 1.45209
lowerneck -12.1796 -7.22208 -10.4411
upperneck 25.0097 -10.2399 8.5572
head 11.0859 -4.75102 3.44829
rclavicle -1.16041e-014 -2.90226e-014
rhumerus -28.6347 37.8241 -104.787
rradius 55.3177
rwrist 27.7956
rhand -8.62082 -1.86932
rfingers 7.12502
rthumb 17.3114 -31.1183
lclavicle -1.16041e-014 -2.90226e-014
lhumerus -28.6924 -34.9776 101.747
lradius 56.027
lwrist -23.5317
lhand -4.39498 15.653
lfingers 7.12502
lthumb 21.3746 44.4941
rfemur -97.9294 -8.07775 13.8493
rtibia 72.3821
rfoot 14.4427 -4.43216
rtoes 4.65162
lfemur -94.5573 1.07042 -19.515
ltibia 65.6173
lfoot 14.559 -4.94211
ltoes -18.4319
131
root 7.70444 10.595 15.7277 12.7122 0.0729492 4.25221
lowerback 6.39993 -1.31377 -4.47737
upperback -11.8488 -2.6858 -1.40787
thorax -16.8074 -0.811963 1.45182
lowerneck -12.2187 -7.20344 -10.4008
upperneck 25.0367 -10.2121 8.52648
head 11.0963 -4.73663 3.43381
rclavicle 1.03865e-014 -1.39149e-015
rhumerus -28.6413 37.822 -104.79
rradius 55.314
rwrist 27.7967
rhand -8.62519 -1.86491
rfingers 7.12502
rthumb 17.3072 -31.1143
lclavicle 1.03865e-014 -1.39149e-015
lhumerus -28.6977 -34.9983 101.753
lradius 56.025
lwrist -23.5313
lhand -4.40503 15.6571
lfingers 7.12502
lthumb 21.365 44.4992
rfemur -97.9359 -8.09342 13.8438
rtibia 72.407
rfoot 14.4366 -4.4338
rtoes 4.63606
lfemur -94.5561 1.053 -19.5166
ltibia 65.6163
lfoot 14.5745 -4.9471
ltoes -18.4288
132
root 7.7046 10.5934 15.727 12.7072 0.0889209 4.25417
lowerback 6.41452 -1.31739 -4.48091
upperback -11.8474 -2.6927 -1.41141
thorax -16.815 -0.814803 1.4516
lowerneck -12.2622 -7.1843 -10.3582
upperneck 25.0629 -10.1814 8.48812
head 11.1064 -4.72144 3.41645
rclavicle 2.48481e-015 -2.18663e-015
rhumerus -28.6451 37.8175 -104.793
rradius 55.3066
rwrist 27.8001
rhand -8.63159 -1.85665
rfingers 7.12502
rthumb 17.301 -31.1066
lclavicle 2.48481e-015 -2.18663e-015
lhumerus -28.702 -35.0134 101.758
lradius 56.0231
lwrist -23.534
lhand -4.41628 15.6616
lfingers 7.12502
lthumb 21.3542 44.5049
rfemur -97.9461 -8.10751 13.8398
rtibia 72.4311
rfoot 14.43 -4.43738
rtoes 4.63183
lfemur -94.56 1.03811 -19.5174
ltibia 65.6181
lfoot 14.5868 -4.95255
ltoes -18.4366
133
root 7.70475 10.5918 15.7265 12.704 0.1022 4.2551
lowerback 6.4256 -1.31935 -4.48237
upperback -11.8461 -2.69694 -1.41607
thorax -16.8208 -0.816827 1.44831
lowerneck -12.3029 -7.16689 -10.312
upperneck 25.0846 -10.1519 8.44212
head 11.1137 -4.70737 3.39551
rclavicle 2.6339e-015 -1.0138e-014
rhumerus -28.6454 37.8018 -104.794
rradius 55.2954
rwrist 27.8109
rhand -8.63852 -1.84344
rfingers 7.12502
rthumb 17.2944 -31.0939
lclavicle 2.6339e-015 -1.0138e-014
lhumerus -28.7077 -35.031 101.764
lradius 56.0224
lwrist -23.5363
lhand -4.42533 15.6699
lfingers 7.12502
lthumb 21.3455 44.5143
rfemur -97.9573 -8.11865 13.8354
rtibia 72.4538
rfoot 14.422 -4.44625
rtoes 4.66222
lfemur -94.5671 1.02657 -19.5181
ltibia 65.623
lfoot 14.5935 -4.95741
ltoes -18.4424
134
root 7.70488 10.5901 15.7263 12.7031 0.114144 4.25482
lowerback 6.4301 -1.32021 -4.48179
upperback -11.8441 -2.69892 -1.42121
thorax -16.8215 -0.818265 1.44269
lowerneck -12.3358 -7.15075 -10.2727
upperneck 25.0992 -10.1249 8.40421
head 11.118 -4.69453 3.37844
rclavicle -8.62228e-015 -2.48481e-014
rhumerus -28.642 37.7807 -104.792
rradius 55.2853
rwrist 27.823
rhand -8.63878 -1.82969
rfingers 7.12502
rthumb 17.2941 -31.0802
lclavicle -8.62228e-015 -2.48481e-014
lhumerus -28.7123 -35.05 101.77
lradius 56.0235
lwrist -23.5383
lhand -4.43529 15.6805
lfingers 7.12502
lthumb 21.3359 44.5259
rfemur -97.9696 -8.12826 13.8334
rtibia 72.4744
rfoot 14.4157 -4.45049
rtoes 4.66935
lfemur -94.5782 1.01722 -19.5187
ltibia 65.6308
lfoot 14.5973 -4.96152
ltoes -18.446
